<mxfile host="app.diagrams.net" agent="Mozilla/5.0 (Windows NT 10.0; Win64; x64) AppleWebKit/537.36 (KHTML, like Gecko) Chrome/136.0.0.0 Safari/537.36 Edg/136.0.0.0" version="26.2.14">
  <diagram name="Page-1" id="m17hVspBdTVo4qlItogP">
    <mxGraphModel dx="940" dy="518" grid="1" gridSize="10" guides="1" tooltips="1" connect="1" arrows="1" fold="1" page="1" pageScale="1" pageWidth="850" pageHeight="1100" math="0" shadow="0">
      <root>
        <mxCell id="0" />
        <mxCell id="1" parent="0" />
        <mxCell id="RXOMdcZ2fdwMBFm7w4JG-2" value="" style="rounded=0;whiteSpace=wrap;html=1;" parent="1" vertex="1">
          <mxGeometry x="20" y="220" width="380" height="260" as="geometry" />
        </mxCell>
        <mxCell id="RXOMdcZ2fdwMBFm7w4JG-3" value="&lt;font style=&quot;color: rgb(179, 179, 179);&quot;&gt;Enter&amp;nbsp; the Room Number&lt;/font&gt;" style="rounded=0;whiteSpace=wrap;html=1;fontFamily=Times New Roman;align=left;" parent="1" vertex="1">
          <mxGeometry x="60" y="270" width="300" height="20" as="geometry" />
        </mxCell>
        <mxCell id="RXOMdcZ2fdwMBFm7w4JG-4" value="&lt;span style=&quot;color: rgb(179, 179, 179); font-family: &amp;quot;Times New Roman&amp;quot;;&quot;&gt;Enter&amp;nbsp; the Room Type&lt;/span&gt;" style="rounded=0;whiteSpace=wrap;html=1;align=left;" parent="1" vertex="1">
          <mxGeometry x="60" y="300" width="300" height="20" as="geometry" />
        </mxCell>
        <mxCell id="RXOMdcZ2fdwMBFm7w4JG-5" value="&lt;br&gt;&lt;div style=&quot;&quot;&gt;&lt;span style=&quot;color: light-dark(rgb(179, 179, 179), rgb(83, 83, 83)); font-family: &amp;quot;Times New Roman&amp;quot;; background-color: light-dark(#ffffff, var(--ge-dark-color, #121212));&quot;&gt;Enter&amp;nbsp; the Room Price&lt;/span&gt;&lt;/div&gt;&lt;div style=&quot;&quot;&gt;&lt;br&gt;&lt;/div&gt;" style="rounded=0;whiteSpace=wrap;html=1;align=left;" parent="1" vertex="1">
          <mxGeometry x="60" y="330" width="300" height="20" as="geometry" />
        </mxCell>
        <mxCell id="RXOMdcZ2fdwMBFm7w4JG-6" value="&lt;span style=&quot;background-color: light-dark(#ffffff, var(--ge-dark-color, #121212));&quot;&gt;&lt;br&gt;&lt;/span&gt;&lt;div style=&quot;&quot;&gt;&lt;span style=&quot;color: light-dark(rgb(179, 179, 179), rgb(83, 83, 83)); font-family: &amp;quot;Times New Roman&amp;quot;; background-color: light-dark(#ffffff, var(--ge-dark-color, #121212));&quot;&gt;Enter&amp;nbsp; the Booking Date&lt;/span&gt;&lt;/div&gt;&lt;div style=&quot;&quot;&gt;&lt;br&gt;&lt;/div&gt;" style="rounded=0;whiteSpace=wrap;html=1;align=left;" parent="1" vertex="1">
          <mxGeometry x="60" y="360" width="300" height="20" as="geometry" />
        </mxCell>
        <mxCell id="RXOMdcZ2fdwMBFm7w4JG-7" value="&lt;span style=&quot;background-color: light-dark(#ffffff, var(--ge-dark-color, #121212));&quot;&gt;&lt;br&gt;&lt;/span&gt;&lt;div style=&quot;&quot;&gt;&lt;span style=&quot;color: light-dark(rgb(179, 179, 179), rgb(83, 83, 83)); font-family: &amp;quot;Times New Roman&amp;quot;; background-color: light-dark(#ffffff, var(--ge-dark-color, #121212));&quot;&gt;Enter&amp;nbsp; the Duration&lt;/span&gt;&lt;/div&gt;&lt;div style=&quot;&quot;&gt;&lt;br&gt;&lt;/div&gt;" style="rounded=0;whiteSpace=wrap;html=1;align=left;" parent="1" vertex="1">
          <mxGeometry x="60" y="390" width="300" height="20" as="geometry" />
        </mxCell>
        <mxCell id="RXOMdcZ2fdwMBFm7w4JG-8" value="" style="rounded=1;whiteSpace=wrap;html=1;fillColor=#008a00;fontColor=#ffffff;strokeColor=#005700;" parent="1" vertex="1">
          <mxGeometry x="70" y="440" width="80" height="20" as="geometry" />
        </mxCell>
        <mxCell id="RXOMdcZ2fdwMBFm7w4JG-9" value="" style="rounded=1;whiteSpace=wrap;html=1;fillColor=#e51400;fontColor=#ffffff;strokeColor=#B20000;" parent="1" vertex="1">
          <mxGeometry x="190" y="440" width="90" height="20" as="geometry" />
        </mxCell>
        <mxCell id="RXOMdcZ2fdwMBFm7w4JG-10" value="Save" style="text;html=1;align=center;verticalAlign=middle;whiteSpace=wrap;rounded=0;" parent="1" vertex="1">
          <mxGeometry x="75" y="435" width="70" height="30" as="geometry" />
        </mxCell>
        <mxCell id="RXOMdcZ2fdwMBFm7w4JG-11" value="Cancle" style="text;html=1;align=center;verticalAlign=middle;whiteSpace=wrap;rounded=0;" parent="1" vertex="1">
          <mxGeometry x="205" y="435" width="60" height="30" as="geometry" />
        </mxCell>
        <mxCell id="PlmPsw1pdetT5tf7IlJ4-2" value="&lt;h1 style=&quot;margin-top: 0px;&quot;&gt;&lt;font style=&quot;font-size: 12px;&quot;&gt;Room Booking&lt;/font&gt;&lt;/h1&gt;&lt;p&gt;&lt;br&gt;&lt;/p&gt;" style="text;html=1;whiteSpace=wrap;overflow=hidden;rounded=0;" vertex="1" parent="1">
          <mxGeometry x="150" y="220" width="150" height="60" as="geometry" />
        </mxCell>
        <mxCell id="PlmPsw1pdetT5tf7IlJ4-20" value="" style="rounded=0;whiteSpace=wrap;html=1;" vertex="1" parent="1">
          <mxGeometry x="440" y="220" width="380" height="260" as="geometry" />
        </mxCell>
        <mxCell id="PlmPsw1pdetT5tf7IlJ4-21" value="&lt;font style=&quot;color: rgb(179, 179, 179);&quot;&gt;Enter&amp;nbsp; the Room Number&lt;/font&gt;" style="rounded=0;whiteSpace=wrap;html=1;fontFamily=Times New Roman;align=left;" vertex="1" parent="1">
          <mxGeometry x="480" y="270" width="300" height="20" as="geometry" />
        </mxCell>
        <mxCell id="PlmPsw1pdetT5tf7IlJ4-22" value="&lt;span style=&quot;color: rgb(179, 179, 179); font-family: &amp;quot;Times New Roman&amp;quot;;&quot;&gt;Enter&amp;nbsp; the Room Type&lt;/span&gt;" style="rounded=0;whiteSpace=wrap;html=1;align=left;" vertex="1" parent="1">
          <mxGeometry x="480" y="300" width="300" height="20" as="geometry" />
        </mxCell>
        <mxCell id="PlmPsw1pdetT5tf7IlJ4-23" value="&lt;br&gt;&lt;div style=&quot;&quot;&gt;&lt;span style=&quot;color: light-dark(rgb(179, 179, 179), rgb(83, 83, 83)); font-family: &amp;quot;Times New Roman&amp;quot;; background-color: light-dark(#ffffff, var(--ge-dark-color, #121212));&quot;&gt;Enter&amp;nbsp; the Room Price&lt;/span&gt;&lt;/div&gt;&lt;div style=&quot;&quot;&gt;&lt;br&gt;&lt;/div&gt;" style="rounded=0;whiteSpace=wrap;html=1;align=left;" vertex="1" parent="1">
          <mxGeometry x="480" y="330" width="300" height="20" as="geometry" />
        </mxCell>
        <mxCell id="PlmPsw1pdetT5tf7IlJ4-24" value="&lt;span style=&quot;background-color: light-dark(#ffffff, var(--ge-dark-color, #121212));&quot;&gt;&lt;br&gt;&lt;/span&gt;&lt;div style=&quot;&quot;&gt;&lt;span style=&quot;color: light-dark(rgb(179, 179, 179), rgb(83, 83, 83)); font-family: &amp;quot;Times New Roman&amp;quot;; background-color: light-dark(#ffffff, var(--ge-dark-color, #121212));&quot;&gt;Enter&amp;nbsp; the Booking Date&lt;/span&gt;&lt;/div&gt;&lt;div style=&quot;&quot;&gt;&lt;br&gt;&lt;/div&gt;" style="rounded=0;whiteSpace=wrap;html=1;align=left;" vertex="1" parent="1">
          <mxGeometry x="480" y="360" width="300" height="20" as="geometry" />
        </mxCell>
        <mxCell id="PlmPsw1pdetT5tf7IlJ4-25" value="&lt;span style=&quot;background-color: light-dark(#ffffff, var(--ge-dark-color, #121212));&quot;&gt;&lt;br&gt;&lt;/span&gt;&lt;div style=&quot;&quot;&gt;&lt;span style=&quot;color: light-dark(rgb(179, 179, 179), rgb(83, 83, 83)); font-family: &amp;quot;Times New Roman&amp;quot;; background-color: light-dark(#ffffff, var(--ge-dark-color, #121212));&quot;&gt;Enter&amp;nbsp; the Duration&lt;/span&gt;&lt;/div&gt;&lt;div style=&quot;&quot;&gt;&lt;br&gt;&lt;/div&gt;" style="rounded=0;whiteSpace=wrap;html=1;align=left;" vertex="1" parent="1">
          <mxGeometry x="480" y="390" width="300" height="20" as="geometry" />
        </mxCell>
        <mxCell id="PlmPsw1pdetT5tf7IlJ4-26" value="" style="rounded=1;whiteSpace=wrap;html=1;fillColor=#008a00;fontColor=#ffffff;strokeColor=#005700;" vertex="1" parent="1">
          <mxGeometry x="490" y="440" width="80" height="20" as="geometry" />
        </mxCell>
        <mxCell id="PlmPsw1pdetT5tf7IlJ4-27" value="" style="rounded=1;whiteSpace=wrap;html=1;fillColor=#e51400;fontColor=#ffffff;strokeColor=#B20000;" vertex="1" parent="1">
          <mxGeometry x="610" y="440" width="90" height="20" as="geometry" />
        </mxCell>
        <mxCell id="PlmPsw1pdetT5tf7IlJ4-28" value="Save" style="text;html=1;align=center;verticalAlign=middle;whiteSpace=wrap;rounded=0;" vertex="1" parent="1">
          <mxGeometry x="495" y="435" width="70" height="30" as="geometry" />
        </mxCell>
        <mxCell id="PlmPsw1pdetT5tf7IlJ4-29" value="Cancle" style="text;html=1;align=center;verticalAlign=middle;whiteSpace=wrap;rounded=0;" vertex="1" parent="1">
          <mxGeometry x="625" y="435" width="60" height="30" as="geometry" />
        </mxCell>
        <mxCell id="PlmPsw1pdetT5tf7IlJ4-30" value="&lt;h1 style=&quot;margin-top: 0px;&quot;&gt;&lt;font style=&quot;font-size: 12px;&quot;&gt;Room Booking&lt;/font&gt;&lt;/h1&gt;&lt;p&gt;&lt;br&gt;&lt;/p&gt;" style="text;html=1;whiteSpace=wrap;overflow=hidden;rounded=0;" vertex="1" parent="1">
          <mxGeometry x="570" y="220" width="150" height="60" as="geometry" />
        </mxCell>
      </root>
    </mxGraphModel>
  </diagram>
</mxfile>
